<mxfile host="app.diagrams.net" agent="Mozilla/5.0 (Macintosh; Intel Mac OS X 10_15_7) AppleWebKit/537.36 (KHTML, like Gecko) Chrome/139.0.0.0 Safari/537.36" version="28.1.1">
  <diagram name="페이지-1" id="BiSjAZ65uulZKemfQ167">
    <mxGraphModel dx="693" dy="803" grid="1" gridSize="10" guides="1" tooltips="1" connect="1" arrows="1" fold="1" page="1" pageScale="1" pageWidth="827" pageHeight="1169" math="0" shadow="0">
      <root>
        <mxCell id="0" />
        <mxCell id="1" parent="0" />
        <mxCell id="3nb2z2yEr6rZy9aEyB7E-1" value="React" style="rounded=0;whiteSpace=wrap;html=1;" vertex="1" parent="1">
          <mxGeometry x="190" y="120" width="120" height="60" as="geometry" />
        </mxCell>
        <mxCell id="3nb2z2yEr6rZy9aEyB7E-2" value="FastAPI" style="rounded=0;whiteSpace=wrap;html=1;" vertex="1" parent="1">
          <mxGeometry x="190" y="210" width="120" height="60" as="geometry" />
        </mxCell>
        <mxCell id="3nb2z2yEr6rZy9aEyB7E-3" value="Design Engine" style="rounded=0;whiteSpace=wrap;html=1;" vertex="1" parent="1">
          <mxGeometry x="120" y="300" width="120" height="60" as="geometry" />
        </mxCell>
        <mxCell id="3nb2z2yEr6rZy9aEyB7E-4" value="S3 (CDN)" style="rounded=0;whiteSpace=wrap;html=1;" vertex="1" parent="1">
          <mxGeometry x="260" y="300" width="120" height="60" as="geometry" />
        </mxCell>
        <mxCell id="3nb2z2yEr6rZy9aEyB7E-6" value="" style="endArrow=classic;startArrow=classic;html=1;rounded=0;fontSize=12;startSize=8;endSize=8;curved=1;exitX=0.75;exitY=1;exitDx=0;exitDy=0;entryX=0.5;entryY=0;entryDx=0;entryDy=0;" edge="1" parent="1" source="3nb2z2yEr6rZy9aEyB7E-2" target="3nb2z2yEr6rZy9aEyB7E-4">
          <mxGeometry width="50" height="50" relative="1" as="geometry">
            <mxPoint x="330" y="440" as="sourcePoint" />
            <mxPoint x="380" y="390" as="targetPoint" />
          </mxGeometry>
        </mxCell>
        <mxCell id="3nb2z2yEr6rZy9aEyB7E-7" value="" style="endArrow=classic;startArrow=classic;html=1;rounded=0;fontSize=12;startSize=8;endSize=8;curved=1;exitX=0.5;exitY=0;exitDx=0;exitDy=0;entryX=0.25;entryY=1;entryDx=0;entryDy=0;" edge="1" parent="1" source="3nb2z2yEr6rZy9aEyB7E-3" target="3nb2z2yEr6rZy9aEyB7E-2">
          <mxGeometry width="50" height="50" relative="1" as="geometry">
            <mxPoint x="330" y="440" as="sourcePoint" />
            <mxPoint x="380" y="390" as="targetPoint" />
          </mxGeometry>
        </mxCell>
        <mxCell id="3nb2z2yEr6rZy9aEyB7E-8" value="" style="endArrow=classic;startArrow=classic;html=1;rounded=0;fontSize=12;startSize=8;endSize=8;curved=1;exitX=1;exitY=0.5;exitDx=0;exitDy=0;entryX=1;entryY=0.5;entryDx=0;entryDy=0;" edge="1" parent="1" source="3nb2z2yEr6rZy9aEyB7E-1" target="3nb2z2yEr6rZy9aEyB7E-4">
          <mxGeometry width="50" height="50" relative="1" as="geometry">
            <mxPoint x="330" y="440" as="sourcePoint" />
            <mxPoint x="380" y="390" as="targetPoint" />
            <Array as="points">
              <mxPoint x="450" y="220" />
            </Array>
          </mxGeometry>
        </mxCell>
        <mxCell id="3nb2z2yEr6rZy9aEyB7E-9" value="" style="endArrow=classic;startArrow=classic;html=1;rounded=0;fontSize=12;startSize=8;endSize=8;curved=1;exitX=0.5;exitY=0;exitDx=0;exitDy=0;entryX=0.5;entryY=1;entryDx=0;entryDy=0;" edge="1" parent="1" source="3nb2z2yEr6rZy9aEyB7E-2" target="3nb2z2yEr6rZy9aEyB7E-1">
          <mxGeometry width="50" height="50" relative="1" as="geometry">
            <mxPoint x="330" y="440" as="sourcePoint" />
            <mxPoint x="380" y="390" as="targetPoint" />
          </mxGeometry>
        </mxCell>
        <mxCell id="3nb2z2yEr6rZy9aEyB7E-10" value="User" style="ellipse;whiteSpace=wrap;html=1;" vertex="1" parent="1">
          <mxGeometry x="127.5" y="30" width="75" height="50" as="geometry" />
        </mxCell>
        <mxCell id="3nb2z2yEr6rZy9aEyB7E-11" value="User" style="ellipse;whiteSpace=wrap;html=1;" vertex="1" parent="1">
          <mxGeometry x="212.5" y="30" width="75" height="50" as="geometry" />
        </mxCell>
        <mxCell id="3nb2z2yEr6rZy9aEyB7E-12" value="User" style="ellipse;whiteSpace=wrap;html=1;" vertex="1" parent="1">
          <mxGeometry x="297.5" y="30" width="75" height="50" as="geometry" />
        </mxCell>
        <mxCell id="3nb2z2yEr6rZy9aEyB7E-13" value="" style="endArrow=classic;startArrow=classic;html=1;rounded=0;fontSize=12;startSize=8;endSize=8;curved=1;exitX=0.5;exitY=1;exitDx=0;exitDy=0;entryX=0.25;entryY=0;entryDx=0;entryDy=0;" edge="1" parent="1" source="3nb2z2yEr6rZy9aEyB7E-10" target="3nb2z2yEr6rZy9aEyB7E-1">
          <mxGeometry width="50" height="50" relative="1" as="geometry">
            <mxPoint x="330" y="400" as="sourcePoint" />
            <mxPoint x="380" y="350" as="targetPoint" />
          </mxGeometry>
        </mxCell>
        <mxCell id="3nb2z2yEr6rZy9aEyB7E-14" value="" style="endArrow=classic;startArrow=classic;html=1;rounded=0;fontSize=12;startSize=8;endSize=8;curved=1;exitX=0.5;exitY=1;exitDx=0;exitDy=0;entryX=0.5;entryY=0;entryDx=0;entryDy=0;" edge="1" parent="1" source="3nb2z2yEr6rZy9aEyB7E-11" target="3nb2z2yEr6rZy9aEyB7E-1">
          <mxGeometry width="50" height="50" relative="1" as="geometry">
            <mxPoint x="400" y="150" as="sourcePoint" />
            <mxPoint x="455" y="190" as="targetPoint" />
          </mxGeometry>
        </mxCell>
        <mxCell id="3nb2z2yEr6rZy9aEyB7E-15" value="" style="endArrow=classic;startArrow=classic;html=1;rounded=0;fontSize=12;startSize=8;endSize=8;curved=1;exitX=0.5;exitY=1;exitDx=0;exitDy=0;entryX=0.75;entryY=0;entryDx=0;entryDy=0;" edge="1" parent="1" source="3nb2z2yEr6rZy9aEyB7E-12" target="3nb2z2yEr6rZy9aEyB7E-1">
          <mxGeometry width="50" height="50" relative="1" as="geometry">
            <mxPoint x="280" y="100" as="sourcePoint" />
            <mxPoint x="280" y="140" as="targetPoint" />
          </mxGeometry>
        </mxCell>
        <mxCell id="3nb2z2yEr6rZy9aEyB7E-16" value="" style="endArrow=classic;html=1;rounded=0;fontSize=12;startSize=8;endSize=8;curved=1;" edge="1" parent="1">
          <mxGeometry width="50" height="50" relative="1" as="geometry">
            <mxPoint x="70" y="330" as="sourcePoint" />
            <mxPoint x="70" y="60" as="targetPoint" />
          </mxGeometry>
        </mxCell>
        <mxCell id="3nb2z2yEr6rZy9aEyB7E-17" value="" style="verticalLabelPosition=bottom;html=1;verticalAlign=top;strokeWidth=1;align=center;outlineConnect=0;dashed=0;outlineConnect=0;shape=mxgraph.aws3d.application;fillColor=#4286c5;strokeColor=#57A2D8;aspect=fixed;" vertex="1" parent="1">
          <mxGeometry x="40" y="170" width="62" height="68.8" as="geometry" />
        </mxCell>
      </root>
    </mxGraphModel>
  </diagram>
</mxfile>
